# xmcd
#
# Track frame offsets: 
#        150
#        32530
#        61095
#        99409
#        132729
#        164479
#        199552
#        233820
#        265544
#        301884
#
# Disc length: 4420 seconds
#
# Revision: 0
# Processed by: cddbd v1.5.2PL0 Copyright (c) Steve Scherf et al.
# Submitted via: ExactAudioCopy v0.99pb4
#
DISCID=7b11420a
DTITLE=Various Artist - Future Memory
DYEAR=2009
DGENRE=Trance
TTITLE0=Farebi Jalebi - Ice Truck Killer
TTITLE1=Nihasa - Sick Time
TTITLE2=Wizack Twizack - The Explorer (Sychotria Remix)
TTITLE3=Abandoned Noise - Future Memory
TTITLE4=Magma Ohm - Black Hole
TTITLE5=Blisargon Demogorgon vs Astrometrix - Acid For Vampires
TTITLE6=Phobos Azazel - Scroll Up
TTITLE7=Kashyyyk - Xeon
TTITLE8=Gappeq - Morphogenesis II
TTITLE9=Strofaria - Active Meditation (Remix)
EXTD=
EXTT0=
EXTT1=
EXTT2=
EXTT3=
EXTT4=
EXTT5=
EXTT6=
EXTT7=
EXTT8=
EXTT9=
PLAYORDER=
